<?xml version="1.0" encoding="iso-8859-1"?>
<!-- Generator: Adobe Illustrator 21.0.0, SVG Export Plug-In . SVG Version: 6.00 Build 0)  -->
<svg version="1.1" id="Capa_1" xmlns="http://www.w3.org/2000/svg" xmlns:xlink="http://www.w3.org/1999/xlink" x="0px" y="0px"
	 viewBox="0 0 512 512" style="enable-background:new 0 0 512 512;" xml:space="preserve">
<path style="fill:#535650;" d="M15.453,0C6.919,0,0,6.919,0,15.453v15.453l16.188,164.829L0,381.167v115.38
	C0,505.081,6.919,512,15.453,512s15.453-6.919,15.453-15.453V15.453C30.905,6.919,23.987,0,15.453,0z"/>
<polygon style="fill:#FF2E23;" points="481.095,113.32 450.189,257.545 512,216.338 512,113.32 "/>
<rect x="248.274" y="113.32" style="fill:#FF4A26;" width="232.821" height="144.225"/>
<polygon style="fill:#FF2E23;" points="481.095,463.581 512,463.581 512,360.563 450.189,319.356 "/>
<rect x="248.274" y="319.356" style="fill:#FF4A26;" width="232.821" height="144.225"/>
<polygon style="fill:#FFCE53;" points="481.095,360.563 512,360.563 512,216.338 481.095,216.338 450.189,288.451 "/>
<rect x="248.274" y="216.338" style="fill:#FFE373;" width="232.821" height="144.225"/>
<path style="fill:#FF2E23;" d="M248.274,30.905h-30.905v144.225h72.113V72.113C289.481,49.355,271.031,30.905,248.274,30.905z"/>
<path style="fill:#FF4A26;" d="M217.368,30.905H0v116.754l258.575,27.472V72.113C258.575,49.355,240.126,30.905,217.368,30.905z"/>
<path style="fill:#FFCE53;" d="M150.406,319.356h139.074V175.131c0-19.201-13.133-35.334-30.905-39.909L150.406,319.356z"/>
<path style="fill:#FFE373;" d="M0,133.924v144.225l258.575,41.207V135.222c-3.292-0.848-6.745-1.298-10.302-1.298H0z"/>
<path style="fill:#FF2E23;" d="M258.572,279.446L227.67,401.771h61.811v-82.414C289.481,300.154,276.346,284.019,258.572,279.446z"
	/>
<path style="fill:#FF4A26;" d="M0,278.149v103.018h207.066l51.509,41.207V279.447c-3.292-0.848-6.745-1.298-10.302-1.298H0z"/>
<path style="fill:#DE2318;" d="M248.274,381.167h-41.207v41.207c0,22.758,18.45,41.207,41.207,41.207s41.207-18.45,41.207-41.207
	C289.481,399.616,271.031,381.167,248.274,381.167z"/>
<g>
</g>
<g>
</g>
<g>
</g>
<g>
</g>
<g>
</g>
<g>
</g>
<g>
</g>
<g>
</g>
<g>
</g>
<g>
</g>
<g>
</g>
<g>
</g>
<g>
</g>
<g>
</g>
<g>
</g>
</svg>
